<svg xmlns="http://www.w3.org/2000/svg" width="460" height="60" viewBox="0 0 460 60" role="img" aria-labelledby="title desc">
  <title id="title">Casa-MX.com</title>
  <desc id="desc">Casa-MX.com logo with location pin and heart</desc>
  <g fill="none" stroke="#D4AF37" stroke-width="3" stroke-linecap="round" stroke-linejoin="round" transform="translate(0 2)">
    <path d="M30 50C18 38 12 29 12 20c0-10 8-18 18-18s18 8 18 18c0 9-6 18-18 30z"/>
    <path d="M22 22c0-3 2.5-5.5 5.5-5.5 2 0 3.5 1 4.5 2.5 1-1.5 2.5-2.5 4.5-2.5 3 0 5.5 2.5 5.5 5.5 0 2.5-1 3.5-3 6l-7 7-7-7c-2-2.5-3-3.5-3-6z"/>
  </g>
  <text x="100" y="48" text-anchor="start" fill="#D4AF37" font-family="Segoe UI, Arial, sans-serif" font-size="36" font-weight="700">Casa-MX.com</text>
</svg>