<svg xmlns="http://www.w3.org/2000/svg" width="920" height="280" viewBox="0 0 920 280" role="img" aria-labelledby="title desc">
  <title id="title">Casa-MX.com</title>
  <desc id="desc">Casa-MX.com logo with location pin and heart</desc>
  <g fill="none" stroke="#D4AF37" stroke-width="14" stroke-linecap="round" stroke-linejoin="round" transform="translate(318 12)">
    <path d="M140 232C87 176 58 136 58 95c0-45 36-81 81-81s81 36 81 81c0 41-29 81-80 137z"/>
    <path d="M118 102c0-13 11-24 24-24 8 0 16 4 20 11 4-7 12-11 20-11 13 0 24 11 24 24 0 10-4 16-14 26l-30 30-30-30c-10-10-14-16-14-26z"/>
  </g>
  <text x="460" y="256" text-anchor="middle" fill="#D4AF37" font-family="Segoe UI, Arial, sans-serif" font-size="92" font-weight="700">Casa-MX.com</text>
</svg>
