<svg xmlns="http://www.w3.org/2000/svg" width="1200" height="630" viewBox="0 0 1200 630" role="img" aria-labelledby="title desc">
  <title id="title">Casa-MX.com</title>
  <desc id="desc">Casa-MX.com social preview image</desc>
  <rect width="1200" height="630" fill="#000000"/>
  <g fill="none" stroke="#D4AF37" stroke-width="18" stroke-linecap="round" stroke-linejoin="round" transform="translate(420 110)">
    <path d="M180 286C112 214 76 162 76 111c0-58 46-104 104-104s104 46 104 104c0 52-37 104-104 180z"/>
    <path d="M150 121c0-16 13-29 29-29 10 0 19 4 24 12 5-8 14-12 24-12 16 0 29 13 29 29 0 12-5 20-16 31l-37 37-37-37c-11-11-16-19-16-31z"/>
  </g>
  <text x="600" y="500" text-anchor="middle" fill="#D4AF37" font-family="Segoe UI, Arial, sans-serif" font-size="96" font-weight="700">Casa-MX.com</text>
</svg>
